<?xml version="1.0" standalone="no"?>
<!DOCTYPE svg PUBLIC "-//W3C//DTD SVG 20010904//EN"
 "http://www.w3.org/TR/2001/REC-SVG-20010904/DTD/svg10.dtd">
<svg version="1.0" xmlns="http://www.w3.org/2000/svg"
 width="521.000000pt" height="521.000000pt" viewBox="0 0 521.000000 521.000000"
 preserveAspectRatio="xMidYMid meet">
<metadata>
Created by potrace 1.14, written by Peter Selinger 2001-2017
</metadata>
<g transform="translate(0.000000,521.000000) scale(0.100000,-0.100000)"
fill="#000000" stroke="none">
<path d="M2826 4812 c-3 -5 1 -9 9 -9 8 0 12 4 9 9 -3 4 -7 8 -9 8 -2 0 -6 -4
-9 -8z"/>
<path d="M2863 4810 c2 -8 14 -14 25 -14 12 1 22 -3 22 -7 0 -11 23 -7 32 6 5
6 8 5 8 -3 0 -7 4 -11 9 -7 5 3 12 1 16 -4 3 -6 12 -8 19 -5 8 3 17 0 21 -5 3
-6 10 -9 14 -6 5 2 23 0 42 -6 19 -6 45 -12 58 -15 13 -3 32 -9 43 -15 10 -5
18 -7 18 -3 0 4 8 0 18 -9 10 -10 21 -14 24 -11 3 3 25 -4 48 -15 24 -11 47
-18 51 -15 5 3 9 0 9 -5 0 -6 9 -11 21 -11 13 0 18 -4 13 -12 -5 -8 0 -9 14
-6 12 4 22 2 22 -3 0 -5 11 -11 25 -15 14 -3 25 -10 25 -15 0 -5 8 -9 19 -9
10 0 24 -7 31 -15 7 -8 16 -13 20 -10 4 3 11 -2 14 -10 3 -8 9 -14 13 -13 9 3
65 -32 75 -47 4 -5 8 -6 8 -2 0 5 7 2 15 -5 33 -30 45 -38 55 -38 5 0 10 -4
10 -10 0 -5 6 -9 13 -7 6 1 11 -4 10 -10 -2 -7 4 -13 12 -13 8 0 15 -5 15 -11
0 -5 5 -7 10 -4 6 3 10 -1 10 -10 0 -9 4 -14 9 -10 5 3 16 -4 24 -15 7 -11 17
-17 20 -13 4 3 7 -2 7 -12 0 -10 3 -16 6 -12 7 7 120 -104 117 -115 -2 -4 6
-10 17 -13 11 -4 20 -13 20 -21 0 -7 9 -19 20 -26 11 -7 20 -19 20 -27 0 -8 3
-11 6 -8 8 7 44 -36 44 -52 0 -6 4 -11 9 -11 5 0 28 -30 52 -67 24 -38 47 -70
52 -71 4 -2 5 -8 1 -13 -3 -5 0 -9 5 -9 6 0 11 -6 11 -13 0 -7 8 -22 18 -33 9
-11 18 -26 20 -34 2 -8 9 -18 15 -22 7 -4 9 -8 4 -8 -4 0 -1 -13 7 -29 9 -16
12 -32 8 -36 -4 -5 -2 -5 4 -2 10 6 30 -38 24 -52 -1 -2 2 -7 7 -10 12 -9 33
-59 33 -81 0 -10 4 -20 9 -22 5 -1 11 -14 13 -28 1 -14 7 -28 11 -31 4 -3 9
-17 9 -30 1 -13 6 -30 11 -37 6 -7 7 -15 4 -19 -4 -3 -2 -12 3 -18 6 -7 12
-27 13 -44 1 -17 5 -31 9 -31 3 0 4 -9 1 -20 -3 -11 -1 -20 3 -20 5 0 10 -19
12 -43 2 -23 4 -53 5 -67 1 -14 5 -29 7 -35 3 -5 5 -30 5 -55 0 -25 5 -48 10
-52 6 -5 6 -8 -2 -8 -8 0 -9 -9 -3 -30 6 -21 5 -30 -3 -30 -8 0 -8 -3 1 -12
16 -16 15 -31 0 -22 -9 5 -9 2 1 -9 10 -13 10 -17 1 -17 -10 0 -10 -3 0 -15 7
-8 9 -15 4 -15 -5 0 -9 -26 -9 -58 1 -31 -2 -72 -6 -89 -4 -20 -3 -33 3 -33 7
0 7 -4 0 -12 -5 -7 -13 -33 -16 -58 -7 -49 -14 -85 -16 -85 -2 0 -11 -54 -12
-72 -1 -7 -5 -13 -9 -13 -4 0 -6 -9 -4 -20 2 -11 0 -22 -6 -25 -5 -4 -9 -17
-9 -31 0 -13 -4 -24 -9 -24 -6 0 -8 -9 -6 -20 2 -11 0 -20 -4 -20 -5 0 -12
-16 -15 -35 -4 -19 -11 -35 -16 -35 -5 0 -7 -7 -4 -15 4 -8 1 -15 -5 -15 -6 0
-11 -9 -11 -20 0 -11 -4 -20 -8 -20 -5 0 -9 -7 -10 -15 -1 -8 -3 -22 -4 -30
-1 -8 -7 -16 -15 -19 -7 -3 -13 -14 -13 -24 0 -11 -9 -31 -21 -46 -11 -14 -18
-26 -15 -26 3 0 -2 -9 -12 -20 -9 -12 -17 -24 -17 -28 0 -4 -10 -21 -23 -39
-12 -17 -22 -36 -22 -42 0 -6 -3 -11 -8 -11 -4 0 -18 -18 -32 -40 -14 -22 -28
-40 -32 -40 -5 0 -8 -5 -8 -10 0 -6 -10 -21 -22 -34 -29 -30 -53 -60 -54 -66
-1 -11 -70 -76 -76 -72 -5 2 -8 -2 -8 -7 0 -6 -9 -20 -20 -31 -11 -11 -20 -18
-20 -15 0 2 -20 -16 -45 -41 -24 -25 -43 -49 -42 -52 4 -14 -36 -132 -45 -132
-5 0 -7 -4 -3 -9 5 -9 -1 -26 -46 -126 -12 -27 -24 -56 -25 -64 -2 -8 -9 -18
-16 -22 -7 -5 -8 -9 -3 -9 6 0 1 -7 -9 -15 -11 -8 -17 -15 -13 -15 4 0 -3 -18
-14 -40 -12 -22 -25 -40 -31 -40 -5 0 -7 -4 -4 -9 3 -5 -1 -14 -9 -21 -8 -7
-15 -16 -15 -21 0 -12 -52 -93 -62 -97 -5 -2 -8 -8 -8 -14 0 -6 -8 -17 -17
-25 -11 -9 -12 -12 -3 -7 8 3 1 -7 -17 -24 -17 -16 -29 -33 -26 -36 4 -3 1 -6
-5 -6 -6 0 -14 -9 -17 -20 -4 -11 -11 -17 -17 -14 -6 4 -8 2 -4 -4 3 -5 0 -13
-6 -16 -7 -3 -4 -4 7 -3 11 1 22 5 25 9 3 4 17 9 30 11 13 2 26 9 28 15 2 6 9
9 17 6 7 -3 16 0 20 5 3 6 10 9 15 6 4 -3 13 2 20 10 7 8 21 15 32 15 12 0 17
4 12 12 -5 8 -2 9 9 5 9 -3 19 -2 22 3 3 5 27 19 53 32 26 13 56 31 66 41 11
9 24 17 29 17 11 0 101 61 105 72 2 4 10 8 18 8 8 0 17 7 20 15 4 8 10 13 14
10 5 -3 16 5 24 17 9 12 16 19 16 14 0 -5 9 1 20 14 11 13 20 20 20 17 0 -4 8
1 18 10 11 10 17 22 14 27 -3 5 3 6 14 2 10 -4 15 -4 12 0 -7 7 51 64 65 64 4
0 5 5 2 10 -3 6 1 10 10 10 9 0 14 4 11 9 -3 4 6 13 19 19 14 7 24 15 23 19
-2 5 15 27 37 49 63 66 84 92 78 98 -4 3 1 6 10 6 16 0 22 12 18 33 -1 5 3 6
8 2 6 -3 13 6 17 20 3 14 9 24 12 21 6 -6 72 90 72 105 0 5 4 9 9 9 5 0 12 9
16 19 3 11 17 36 31 56 13 20 26 42 27 48 1 7 5 14 8 17 10 8 63 124 61 133
-1 4 3 7 8 7 6 0 10 6 10 13 0 8 7 28 16 45 8 18 13 36 9 42 -3 5 -1 10 4 10
6 0 11 7 11 15 0 8 4 15 8 15 5 0 8 10 7 23 -1 12 4 31 12 43 7 11 10 24 6 27
-3 4 -1 7 6 7 7 0 9 5 6 10 -4 6 -2 16 3 23 5 7 8 20 7 30 -2 9 0 17 4 17 4 0
8 6 8 13 0 6 4 28 8 47 4 19 8 43 9 53 0 9 3 17 6 17 3 0 6 8 7 18 1 27 11
117 13 117 1 0 3 19 5 43 2 23 7 47 10 52 3 5 1 11 -5 15 -6 4 -7 13 -2 23 12
24 3 444 -9 436 -3 -2 -6 15 -7 36 -2 52 -5 64 -17 72 -6 5 -4 8 5 8 11 0 12
2 3 8 -7 4 -13 28 -15 52 -2 25 -10 50 -18 57 -11 9 -11 12 -2 13 10 0 9 7 -3
30 -8 16 -15 38 -15 50 0 11 -4 20 -9 20 -6 0 -8 9 -6 20 3 13 0 18 -7 14 -7
-5 -9 0 -6 14 4 12 2 22 -4 22 -5 0 -7 4 -3 9 3 5 -1 15 -8 23 -8 7 -12 19 -9
26 2 6 -1 12 -7 12 -6 0 -8 6 -5 14 3 8 1 17 -5 21 -6 3 -11 15 -11 26 0 10
-4 19 -10 19 -5 0 -10 9 -10 20 0 11 -5 20 -11 20 -6 0 -9 7 -5 15 3 8 1 15
-4 15 -5 0 -12 10 -16 23 -3 12 -14 31 -23 41 -11 14 -12 17 -2 11 8 -5 3 7
-11 26 -14 19 -36 53 -48 77 -13 23 -27 42 -32 42 -4 0 -8 9 -8 19 0 10 -7 22
-16 25 -9 4 -14 9 -11 12 3 3 -2 14 -11 24 -31 34 -42 49 -42 57 0 5 -9 15
-20 23 -11 8 -20 19 -20 24 0 5 -11 19 -26 32 -14 13 -23 24 -20 24 3 0 -17
23 -44 51 -28 28 -50 55 -50 61 0 5 -4 7 -9 3 -5 -3 -12 4 -16 15 -3 11 -11
20 -16 20 -5 0 -25 15 -43 33 -56 55 -95 87 -107 87 -5 0 -7 5 -4 10 3 6 -1
10 -9 10 -9 0 -16 5 -16 10 0 6 -6 10 -13 10 -7 0 -19 9 -27 20 -8 11 -20 20
-27 20 -7 0 -13 4 -13 9 0 5 -13 14 -30 21 -16 7 -30 16 -30 21 0 5 -7 9 -15
9 -8 0 -15 5 -15 10 0 6 -7 10 -15 10 -8 0 -23 9 -32 20 -10 11 -23 20 -30 20
-7 0 -29 11 -49 25 -20 14 -40 22 -45 19 -5 -3 -9 0 -9 5 0 6 -9 11 -21 11
-13 0 -18 4 -13 12 5 7 2 9 -9 5 -8 -3 -21 1 -27 9 -7 8 -23 14 -37 14 -16 0
-22 4 -17 13 4 6 4 9 0 5 -5 -4 -30 2 -57 12 -27 11 -49 16 -49 12 0 -4 -5 1
-10 10 -6 10 -19 15 -30 13 -11 -2 -20 0 -20 4 0 8 -40 19 -82 24 -10 1 -18 5
-18 9 0 4 -3 7 -7 6 -5 -1 -26 3 -48 7 -22 5 -46 8 -52 7 -7 -2 -13 2 -13 8 0
6 -6 10 -12 9 -7 -1 -29 1 -48 5 -52 11 -91 16 -135 18 -22 2 -44 7 -48 13 -5
6 -7 4 -4 -5z"/>
<path d="M1588 4543 c7 -3 16 -2 19 1 4 3 -2 6 -13 5 -11 0 -14 -3 -6 -6z"/>
<path d="M1540 4509 c0 -5 -4 -8 -9 -5 -5 3 -15 -1 -22 -10 -7 -9 -20 -19 -29
-23 -39 -16 -119 -77 -115 -88 2 -7 -2 -10 -11 -6 -7 3 -14 0 -14 -6 0 -6 -5
-11 -10 -11 -11 0 -19 -6 -76 -57 -19 -18 -40 -33 -45 -33 -6 0 -7 -4 -4 -10
3 -5 1 -10 -4 -10 -13 0 -131 -119 -131 -132 0 -5 -4 -6 -10 -3 -5 3 -10 2
-10 -4 0 -6 -13 -24 -30 -41 -17 -17 -30 -34 -30 -38 0 -4 -8 -15 -17 -24 -28
-26 -43 -46 -43 -58 0 -5 -3 -10 -7 -10 -5 0 -30 -34 -57 -75 -27 -41 -53 -75
-58 -75 -5 0 -7 -4 -3 -9 3 -5 1 -12 -5 -16 -6 -4 -8 -10 -5 -15 3 -4 -2 -11
-11 -14 -8 -3 -12 -10 -9 -16 3 -5 1 -10 -4 -10 -6 0 -10 -3 -9 -7 3 -16 -25
-62 -35 -56 -6 3 -7 1 -3 -5 4 -6 1 -22 -6 -34 -6 -13 -13 -29 -14 -37 -2 -8
-6 -17 -11 -20 -4 -3 -10 -15 -11 -26 -2 -11 -8 -23 -13 -26 -6 -3 -12 -19
-15 -34 -3 -16 -10 -35 -15 -42 -6 -7 -8 -16 -5 -22 3 -5 2 -11 -4 -13 -5 -1
-11 -14 -14 -28 -2 -14 -5 -26 -7 -27 -1 -2 -2 -6 -3 -10 -2 -5 -8 -28 -16
-53 -7 -25 -13 -48 -12 -52 1 -5 -2 -8 -6 -8 -4 0 -7 -12 -7 -27 1 -16 -1 -32
-4 -38 -3 -5 -6 -12 -7 -15 0 -3 -4 -23 -9 -45 -4 -22 -9 -48 -11 -58 -1 -9
-6 -22 -9 -27 -3 -6 0 -10 7 -10 10 0 9 -3 -2 -10 -8 -5 -11 -12 -8 -16 4 -4
3 -15 -2 -25 -7 -12 -7 -20 0 -24 6 -4 7 -13 1 -24 -5 -9 -8 -29 -7 -44 2 -15
0 -27 -3 -27 -7 0 -5 -246 3 -266 3 -8 1 -14 -5 -14 -6 0 -7 -5 -4 -10 4 -6 8
-25 10 -43 11 -97 17 -163 18 -174 0 -7 3 -13 7 -13 3 0 6 -10 7 -22 2 -44 7
-78 13 -78 3 0 6 -10 7 -23 3 -26 8 -46 16 -67 4 -8 8 -24 10 -35 1 -11 5 -24
8 -30 8 -14 23 -68 21 -77 -1 -5 3 -8 8 -8 6 0 10 -6 8 -12 -1 -7 3 -22 9 -33
6 -11 12 -24 13 -30 1 -5 11 -30 23 -55 11 -25 22 -51 23 -58 1 -8 10 -22 20
-33 9 -10 14 -19 11 -19 -4 0 4 -20 18 -44 13 -24 21 -47 17 -51 -4 -5 -1 -5
6 -1 7 4 12 1 12 -7 0 -8 7 -20 15 -27 8 -7 12 -16 9 -21 -3 -5 0 -9 5 -9 6 0
11 -6 11 -14 0 -8 7 -16 15 -20 8 -3 15 -14 15 -25 0 -10 7 -21 15 -25 8 -3
15 -10 15 -16 0 -5 9 -20 20 -32 10 -13 20 -27 22 -33 5 -19 32 -44 41 -38 6
3 7 2 4 -4 -4 -5 4 -21 16 -34 12 -13 21 -27 19 -31 -1 -5 5 -8 13 -8 9 0 19
-8 22 -17 9 -23 169 -183 183 -183 6 0 8 -4 5 -10 -3 -5 1 -10 9 -10 9 0 16
-4 16 -10 0 -5 7 -10 16 -10 8 0 13 -4 10 -8 -3 -5 6 -15 19 -22 14 -7 25 -17
25 -20 0 -4 13 -13 30 -20 16 -7 27 -16 24 -21 -3 -5 2 -9 10 -9 9 0 16 -4 16
-10 0 -5 6 -10 13 -10 8 0 22 -9 32 -20 10 -11 24 -20 32 -20 7 0 13 -3 13 -8
0 -4 15 -13 33 -21 17 -8 34 -18 37 -21 8 -11 174 -95 183 -92 4 1 7 -3 7 -8
0 -6 7 -10 15 -10 15 0 24 -4 83 -34 17 -9 32 -15 32 -12 0 3 12 -1 27 -9 15
-8 30 -12 35 -9 4 3 8 0 8 -6 0 -7 6 -10 14 -7 7 3 23 -1 34 -8 10 -8 22 -12
25 -8 4 3 17 -1 29 -9 13 -7 33 -13 46 -12 12 1 22 -2 22 -6 0 -5 10 -6 22 -2
13 3 19 1 15 -5 -4 -6 6 -9 23 -8 17 1 30 -3 30 -9 0 -6 5 -4 10 4 5 8 10 10
10 5 0 -6 8 -11 18 -12 25 -2 45 -7 60 -16 7 -5 12 -3 12 3 0 6 5 8 13 3 6 -4
23 -9 37 -10 14 -1 50 -5 80 -8 49 -6 179 -9 266 -6 31 1 32 2 29 47 -3 43
-41 130 -71 165 -8 8 -14 21 -14 27 0 7 -4 12 -9 12 -5 0 -17 13 -28 29 -10
16 -48 61 -85 100 -37 39 -65 71 -62 71 3 0 -1 6 -8 14 -7 8 -16 12 -21 9 -4
-2 -7 3 -7 11 0 15 -17 21 -49 17 -8 -2 -10 2 -5 11 6 10 4 10 -9 -1 -9 -7
-17 -9 -17 -4 0 6 -16 9 -36 8 -19 -1 -37 1 -39 5 -2 3 -18 5 -34 4 -17 -1
-31 1 -31 5 0 4 -16 8 -36 9 -20 2 -46 7 -56 13 -11 6 -22 8 -25 5 -4 -3 -12
-1 -20 5 -7 6 -13 9 -13 6 0 -3 -17 1 -37 10 -21 8 -39 15 -40 14 -12 -5 -23
1 -17 11 4 7 3 8 -4 4 -6 -4 -28 0 -49 9 -21 9 -38 16 -38 15 0 -1 -13 4 -30
11 -16 7 -32 13 -35 14 -33 8 -49 18 -44 26 3 6 0 9 -7 8 -18 -4 -159 68 -159
81 0 6 -3 9 -7 8 -13 -3 -63 24 -63 34 0 4 -6 8 -13 8 -7 0 -23 9 -34 19 -12
11 -24 17 -27 14 -3 -4 -6 1 -6 10 0 9 -6 16 -12 15 -7 -2 -12 3 -10 10 1 7
-3 12 -10 10 -7 -1 -26 9 -42 22 -15 14 -42 37 -60 52 -17 15 -35 28 -39 28
-5 0 -6 4 -3 8 3 5 -6 15 -19 22 -13 7 -22 17 -19 22 3 4 -2 8 -10 8 -9 0 -16
7 -16 16 0 8 -3 13 -8 11 -6 -3 -59 45 -54 51 7 7 0 22 -7 17 -6 -3 -15 5 -22
17 -7 13 -20 30 -31 39 -10 9 -18 21 -18 28 0 6 -4 11 -10 11 -5 0 -10 4 -10
10 0 9 -19 35 -47 65 -7 8 -13 21 -13 30 0 9 -5 13 -10 10 -5 -3 -10 1 -10 9
0 9 -5 16 -11 16 -5 0 -8 4 -4 10 3 5 -3 18 -15 30 -11 11 -20 21 -19 23 2 7
-17 45 -33 69 -10 14 -18 33 -18 42 0 9 -5 16 -11 16 -5 0 -7 5 -4 10 3 6 -1
13 -9 16 -9 3 -13 10 -10 15 3 5 -2 17 -11 26 -13 13 -14 18 -3 24 7 5 8 9 3
9 -15 0 -38 67 -29 81 4 8 3 9 -4 5 -7 -4 -12 -4 -13 1 0 4 -3 17 -5 28 -3 11
-6 26 -6 33 -1 6 -5 12 -8 12 -4 0 -8 11 -9 25 -3 48 -4 55 -13 55 -4 0 -8 14
-8 30 0 17 -4 30 -8 30 -5 0 -8 16 -7 36 0 20 -5 47 -11 59 -9 17 -9 26 -1 34
7 7 7 11 1 11 -5 0 -10 9 -11 20 -1 13 3 18 10 14 7 -3 5 0 -3 8 -11 9 -15 34
-15 93 0 44 -4 83 -9 86 -5 4 -5 13 0 20 11 18 14 39 6 39 -4 0 -6 15 -5 32 1
18 2 33 3 33 1 0 3 18 5 40 6 105 9 131 18 143 6 8 5 12 -3 12 -9 0 -9 4 -3
13 6 6 11 19 11 27 1 24 7 44 16 59 7 10 6 12 -4 6 -10 -6 -11 -4 -5 11 4 10
10 31 13 46 2 15 8 26 12 23 4 -2 6 7 4 20 -1 14 1 25 6 25 4 0 7 10 7 23 0
12 5 36 12 52 6 17 25 67 43 113 17 45 35 82 40 82 5 0 7 4 3 10 -6 9 54 132
68 138 4 2 7 10 7 18 0 8 5 14 11 14 5 0 7 5 4 10 -3 6 -1 10 4 10 6 0 11 7
11 15 0 8 3 15 8 15 4 0 16 19 27 41 10 23 25 44 32 46 7 3 13 10 13 15 0 15
52 73 62 70 5 -1 7 2 4 7 -3 5 6 22 22 39 15 16 41 46 59 66 17 20 36 36 42
36 6 0 10 3 10 8 -3 18 2 35 8 29 9 -10 44 24 36 36 -3 5 -2 7 4 4 5 -3 26 9
46 27 20 18 40 30 43 27 4 -3 4 0 0 7 -4 6 -2 12 3 12 10 0 36 19 66 48 8 6
18 12 24 12 5 0 16 8 23 19 7 10 16 19 20 20 4 1 18 6 30 11 l23 9 -22 0 c-13
1 -23 -4 -23 -10z"/>
<path d="M2653 4140 c3 -11 0 -20 -6 -20 -6 0 -7 -3 -4 -6 3 -4 2 -14 -2 -23
-5 -9 -11 -29 -14 -46 -3 -16 -9 -41 -12 -55 -3 -14 -8 -38 -9 -55 -2 -16 -7
-38 -11 -48 -4 -10 -5 -21 -1 -24 3 -4 -1 -17 -10 -31 -10 -15 -11 -21 -3 -17
9 6 10 3 4 -11 -5 -10 -8 -32 -7 -47 1 -19 -2 -26 -11 -20 -7 4 -7 0 2 -10 8
-11 9 -17 3 -17 -6 0 -9 -7 -5 -16 3 -9 0 -20 -8 -25 -8 -5 -9 -9 -3 -9 6 0
10 -12 8 -27 -1 -16 -3 -28 -4 -28 -1 0 -3 -17 -4 -37 -1 -22 3 -38 8 -38 8 0
8 -3 1 -8 -12 -8 -14 -131 -2 -149 5 -8 3 -13 -4 -13 -8 0 -7 -5 2 -17 12 -15
12 -16 -1 -8 -13 8 -13 7 -1 -8 11 -14 11 -17 0 -17 -9 0 -10 -3 -4 -8 6 -4
11 -18 11 -32 2 -48 15 -123 25 -141 6 -12 5 -20 -1 -24 -6 -4 -7 -12 -3 -18
9 -15 14 -35 16 -64 0 -13 5 -23 11 -23 5 0 7 -3 4 -6 -4 -3 0 -20 7 -39 8
-18 11 -36 7 -39 -3 -4 -2 -10 3 -14 6 -4 16 -25 24 -47 8 -22 24 -62 36 -90
12 -27 28 -66 35 -85 7 -19 20 -43 28 -53 8 -9 12 -20 9 -24 -4 -3 -1 -13 5
-21 7 -7 14 -24 15 -35 2 -12 8 -26 13 -31 6 -6 10 -18 10 -28 0 -10 5 -18 10
-18 6 0 10 -9 10 -20 0 -11 5 -20 11 -20 5 0 8 -4 5 -9 -3 -5 5 -30 19 -55 14
-26 25 -55 25 -66 0 -10 5 -20 10 -22 6 -2 12 -13 13 -26 0 -12 4 -22 7 -22 7
0 35 -72 32 -82 -1 -5 3 -8 9 -8 5 0 8 -4 4 -9 -3 -5 0 -15 7 -23 7 -7 15 -22
16 -33 2 -11 9 -26 15 -34 10 -12 9 -13 -3 -7 -8 4 -6 0 4 -8 11 -9 17 -16 13
-16 -4 0 4 -25 18 -56 14 -31 23 -60 20 -64 -3 -5 -2 -10 2 -12 8 -3 54 -122
57 -148 1 -8 10 -32 20 -53 10 -21 16 -40 13 -44 -4 -3 0 -18 8 -34 8 -15 15
-37 15 -49 0 -13 4 -19 11 -14 8 5 8 1 0 -14 -7 -13 -7 -22 -1 -24 5 -2 11
-15 12 -30 1 -16 5 -28 9 -28 3 0 6 -16 6 -36 -1 -19 3 -38 8 -42 6 -4 11 -23
12 -42 6 -73 8 -90 13 -90 3 0 6 -9 6 -20 0 -11 -5 -20 -11 -20 -5 0 -3 -5 5
-10 8 -5 12 -10 8 -10 -4 0 -3 -11 2 -24 5 -15 5 -27 -3 -35 -6 -6 -7 -11 -2
-11 11 0 12 -71 1 -88 -3 -6 -2 -13 3 -17 6 -3 7 -15 2 -28 -4 -12 -7 -32 -6
-44 1 -13 -1 -23 -5 -23 -4 0 -6 -11 -5 -25 2 -14 0 -25 -4 -25 -4 0 -7 -8 -8
-17 -1 -10 -5 -31 -9 -47 -5 -21 -4 -27 5 -22 6 4 9 11 6 16 -3 5 4 11 15 15
11 3 20 9 20 13 0 4 11 20 25 35 14 15 23 27 18 27 -4 0 2 7 13 15 10 8 15 15
9 15 -5 0 1 7 13 16 12 8 20 20 17 25 -4 5 1 12 9 15 9 3 16 10 16 15 0 11 40
71 55 81 6 4 7 8 2 8 -8 0 19 46 41 69 7 7 11 20 8 27 -3 8 -1 14 4 14 5 0 14
10 21 21 8 16 8 20 -1 14 -8 -5 -7 0 2 14 7 12 16 21 20 21 5 0 8 4 8 9 0 5 5
22 12 38 6 15 11 31 10 36 -1 4 3 7 9 7 5 0 8 4 4 9 -3 5 -1 12 5 16 6 4 8 11
5 16 -4 5 -1 9 5 9 6 0 8 5 5 10 -3 6 -2 10 3 10 5 0 9 8 9 18 -1 9 7 41 16
71 9 29 14 57 11 62 -3 5 -1 9 3 9 5 0 9 8 10 18 1 9 4 31 8 47 3 17 8 50 10
75 6 60 9 73 19 89 6 9 5 12 -1 8 -11 -7 -11 71 0 90 4 6 3 14 -2 17 -4 3 -9
29 -11 58 -1 29 -2 63 -3 76 -1 12 -4 22 -7 22 -3 0 -6 10 -7 23 -2 44 -7 77
-13 77 -3 0 -7 12 -8 26 -1 15 -6 32 -12 39 -5 6 -10 26 -12 43 -1 18 -6 32
-10 32 -4 0 -8 9 -8 20 0 11 -4 20 -8 20 -5 0 -9 7 -10 15 -1 8 -3 22 -4 30
-1 8 -5 15 -10 15 -4 0 -8 9 -8 19 0 11 -6 26 -13 33 -8 7 -12 19 -9 26 2 6
-1 12 -8 12 -6 0 -9 4 -5 9 3 5 1 12 -5 16 -6 4 -8 11 -5 16 4 5 2 9 -3 9 -10
0 -36 53 -32 66 1 4 -2 10 -7 13 -11 8 -93 151 -93 162 0 5 -4 9 -10 9 -5 0
-10 6 -10 14 0 7 -7 19 -15 26 -8 7 -12 16 -9 21 3 5 -2 9 -10 9 -10 0 -13 6
-9 17 4 11 3 14 -5 9 -8 -5 -12 0 -12 13 0 12 -4 21 -10 21 -5 0 -19 18 -30
40 -11 22 -24 40 -28 40 -4 0 -13 13 -20 28 -6 16 -20 37 -30 48 -9 10 -23 31
-31 47 -8 15 -18 27 -23 27 -4 0 -8 7 -8 15 0 8 -9 23 -20 32 -11 10 -20 23
-20 30 0 7 -4 13 -10 13 -5 0 -10 5 -10 10 0 6 -18 38 -40 71 -22 33 -40 67
-40 75 0 8 -3 14 -7 14 -5 0 -19 25 -33 55 -14 30 -28 55 -32 55 -5 0 -8 6 -8
13 0 7 -10 33 -22 58 -12 24 -22 47 -23 51 0 3 -3 10 -7 14 -5 4 -8 15 -8 25
0 9 -5 19 -10 21 -6 2 -12 13 -13 26 0 12 -5 22 -9 22 -4 0 -8 8 -8 18 0 10
-3 22 -7 26 -5 4 -8 11 -9 14 0 4 -9 34 -19 67 -11 33 -20 63 -21 68 -1 4 -3
9 -4 12 -1 3 -3 8 -4 13 -1 4 -5 13 -9 20 -5 7 -9 26 -9 42 -1 17 -5 30 -10
30 -4 0 -8 13 -8 28 0 15 -5 33 -12 40 -9 9 -9 12 3 12 12 0 12 2 -1 10 -23
15 -33 12 -27 -10z"/>
<path d="M4078 3748 c7 -9 9 -18 4 -20 -5 -1 -12 -32 -15 -68 -4 -36 -9 -78
-13 -95 -3 -16 -7 -34 -8 -40 -1 -5 -6 -16 -10 -24 -7 -11 -6 -12 5 -6 12 8
12 6 0 -8 -7 -9 -10 -17 -6 -17 4 0 0 -11 -9 -25 -9 -14 -12 -25 -6 -25 6 0 4
-10 -5 -23 -8 -13 -12 -27 -8 -30 3 -4 1 -7 -6 -7 -7 0 -10 -4 -6 -9 3 -5 1
-12 -5 -16 -6 -4 -8 -11 -5 -16 4 -5 -1 -12 -9 -15 -9 -3 -14 -10 -11 -14 3
-5 1 -11 -5 -15 -6 -4 -8 -11 -5 -16 4 -5 1 -9 -4 -9 -6 0 -11 -9 -11 -21 0
-11 -4 -18 -9 -15 -5 3 -12 -5 -15 -18 -3 -14 -18 -38 -32 -55 -14 -17 -23
-31 -20 -31 4 0 -7 -13 -24 -30 -16 -16 -30 -32 -30 -36 0 -4 -8 -14 -18 -23
-10 -9 -28 -29 -41 -46 -12 -16 -25 -29 -27 -27 -2 1 -4 0 -4 -3 0 -7 -44 -52
-50 -51 -3 0 -26 -21 -52 -46 -43 -42 -46 -48 -32 -62 12 -12 12 -16 2 -16 -8
0 -7 -4 5 -11 9 -5 17 -17 17 -24 0 -8 5 -15 11 -15 5 0 8 -4 5 -9 -3 -5 4
-20 15 -35 11 -14 17 -26 13 -26 -4 0 1 -9 11 -20 10 -11 15 -20 11 -20 -3 0
0 -10 9 -23 8 -13 12 -27 8 -30 -3 -4 -1 -7 5 -7 7 0 12 -9 12 -19 0 -11 4
-22 9 -25 5 -3 12 -18 15 -32 4 -14 15 -45 25 -68 20 -46 51 -133 56 -157 2
-9 8 -32 13 -50 5 -19 8 -42 6 -51 -1 -10 1 -18 5 -18 4 0 8 -12 9 -27 1 -16
7 -30 12 -31 6 -2 8 -8 5 -13 -4 -5 1 -6 9 -3 9 3 16 12 16 20 0 8 5 14 12 14
6 0 8 3 5 7 -4 3 4 16 18 28 13 13 21 26 18 29 -4 3 -2 6 4 6 9 0 30 36 31 54
0 5 7 13 16 18 9 5 16 16 16 23 0 8 5 15 12 15 6 0 8 3 5 6 -4 4 3 20 14 35
11 16 17 29 13 29 -4 0 0 8 9 18 8 9 32 60 52 112 20 52 41 104 46 115 6 11
11 30 12 43 0 12 5 22 10 22 4 0 5 5 2 10 -4 6 -2 16 3 23 5 7 8 20 7 30 -2 9
0 17 5 17 5 0 7 11 5 25 -1 14 2 25 7 25 5 0 6 9 3 20 -3 11 -2 20 2 20 5 0 9
10 10 23 4 76 7 96 16 90 5 -3 4 4 -2 15 -8 14 -8 23 -1 27 8 5 8 11 0 20 -6
7 -7 16 -3 18 11 7 10 57 0 75 -5 7 -3 12 3 12 7 0 8 6 0 19 -7 13 -7 22 0 26
7 4 7 13 0 26 -8 13 -7 19 0 19 6 0 9 4 6 8 -9 14 -18 75 -17 110 0 17 -3 32
-7 32 -5 0 -9 12 -10 28 -1 25 -8 67 -12 67 -1 0 -3 8 -6 18 -2 9 -6 23 -7 30
-2 6 -7 26 -12 42 -4 17 -13 36 -19 44 -9 12 -8 13 4 6 12 -6 11 -4 -2 11 -9
10 -18 28 -20 39 -1 11 -10 26 -18 33 -10 9 -10 11 -1 7 9 -6 9 -1 -3 17 -9
14 -13 28 -9 31 3 4 1 7 -6 7 -7 0 -10 4 -7 9 3 5 -2 15 -12 22 -15 13 -16 12
-4 -3z"/>
<path d="M3410 3678 c0 -5 -4 -7 -9 -4 -10 7 -61 -16 -61 -27 0 -5 -4 -5 -10
-2 -5 3 -10 1 -10 -4 0 -6 -6 -11 -12 -11 -14 0 -68 -71 -68 -89 0 -6 -4 -11
-8 -11 -4 0 -8 -8 -9 -17 -1 -10 -4 -39 -7 -65 -3 -26 -1 -50 4 -53 5 -3 7
-12 4 -19 -3 -8 0 -17 5 -21 6 -3 9 -11 6 -16 -4 -5 -1 -9 4 -9 6 0 11 -7 11
-15 0 -16 65 -85 80 -85 6 0 10 -5 10 -12 0 -6 3 -9 6 -5 4 3 20 -1 36 -9 16
-8 33 -12 38 -9 6 3 10 2 10 -2 0 -10 66 -9 95 1 49 18 91 44 128 79 21 20 36
37 33 37 -4 0 1 14 10 31 20 39 22 142 4 184 -7 17 -13 33 -12 38 1 4 -3 7 -8
7 -5 0 -10 8 -10 17 0 9 -3 13 -6 10 -4 -3 -15 4 -25 17 -21 27 -94 68 -103
59 -3 -4 -6 -2 -6 3 0 6 -27 10 -60 10 -33 0 -60 -4 -60 -8z"/>
<path d="M2350 3420 c-8 -5 -10 -10 -5 -10 6 0 1 -7 -10 -16 -11 -8 -19 -17
-17 -20 2 -2 -10 -32 -27 -67 -55 -116 -71 -156 -71 -171 0 -9 -4 -16 -10 -16
-5 0 -9 -3 -8 -7 4 -16 -14 -73 -21 -68 -5 2 -7 -7 -5 -20 1 -14 -2 -25 -7
-25 -5 0 -8 -3 -8 -7 3 -16 -14 -93 -20 -93 -4 0 -7 -10 -8 -22 -1 -29 -10
-75 -17 -87 -4 -5 -1 -13 5 -17 8 -4 8 -8 0 -13 -6 -4 -12 -25 -14 -46 -1 -22
-5 -45 -8 -50 -3 -6 -5 -40 -5 -77 1 -38 -1 -68 -4 -68 -3 0 -5 -27 -5 -60 0
-33 2 -60 5 -60 3 0 4 -21 4 -47 -1 -27 3 -54 9 -60 6 -9 6 -13 -2 -13 -7 0
-8 -8 0 -27 5 -14 8 -32 5 -40 -3 -7 -1 -13 3 -13 5 0 7 -9 4 -20 -3 -12 0
-20 7 -20 9 0 10 -3 1 -13 -6 -8 -8 -17 -4 -21 7 -7 13 -27 16 -61 2 -11 6
-26 10 -32 5 -7 6 -13 3 -13 -3 0 -1 -12 5 -27 6 -16 13 -41 16 -58 3 -16 8
-32 11 -35 4 -3 9 -14 10 -25 2 -11 9 -26 15 -34 10 -12 9 -13 -3 -7 -8 4 -6
0 4 -8 15 -12 16 -16 5 -16 -10 0 -11 -3 -2 -8 6 -4 15 -20 18 -35 4 -15 11
-30 16 -33 5 -3 9 -14 9 -25 0 -10 5 -19 11 -19 6 0 9 -6 6 -12 -2 -7 3 -19
12 -26 12 -10 12 -11 1 -6 -8 5 -5 -4 8 -20 12 -16 22 -34 22 -41 0 -7 9 -24
20 -38 11 -14 20 -32 20 -41 0 -9 3 -16 8 -16 4 0 18 -21 32 -47 14 -27 29
-53 35 -60 5 -6 30 -41 55 -78 25 -37 59 -83 77 -101 17 -19 28 -34 25 -34 -4
0 1 -5 11 -11 9 -5 17 -17 17 -25 0 -8 5 -12 10 -9 6 3 10 1 10 -5 0 -6 23
-33 50 -61 28 -27 50 -53 50 -57 0 -4 11 -16 25 -26 13 -10 23 -22 20 -25 -2
-4 5 -14 16 -21 10 -8 19 -20 19 -28 0 -7 7 -15 15 -18 8 -4 12 -10 9 -15 -3
-5 0 -9 5 -9 6 0 11 -7 11 -15 0 -9 7 -18 15 -21 8 -4 12 -10 9 -15 -3 -5 0
-9 5 -9 6 0 11 -7 11 -16 0 -9 8 -23 18 -31 9 -8 11 -12 5 -8 -18 8 -16 0 2
-19 9 -8 16 -33 18 -54 2 -34 5 -39 19 -31 9 5 22 26 28 46 6 21 15 47 20 58
10 21 29 93 37 135 2 13 6 26 8 29 2 2 0 13 -6 24 -7 13 -8 17 -1 13 11 -7 9
194 -3 248 -3 15 -7 47 -9 70 -2 24 -8 52 -14 63 -6 11 -9 23 -5 26 3 4 0 14
-8 24 -12 14 -12 16 0 8 11 -6 12 -5 5 6 -4 8 -9 19 -11 24 -1 6 -4 20 -7 33
-3 12 -9 32 -12 45 -3 12 -6 27 -7 32 -2 6 -6 16 -10 23 -5 6 -6 12 -2 12 3 0
-2 17 -10 37 -9 20 -13 43 -11 50 3 7 0 13 -6 13 -6 0 -9 3 -5 6 3 4 0 19 -8
34 -8 15 -11 30 -8 34 4 3 2 6 -4 6 -5 0 -10 6 -11 13 -1 26 -11 56 -30 96
-11 23 -16 39 -11 36 5 -4 6 1 3 9 -3 9 -10 16 -16 16 -5 0 -7 4 -4 8 3 5 -1
20 -9 35 -8 15 -11 27 -8 27 3 0 1 6 -4 13 -6 6 -19 37 -29 67 -10 30 -23 58
-29 62 -5 4 -7 8 -3 8 4 0 1 12 -7 27 -8 15 -12 30 -9 35 3 4 1 8 -5 8 -5 0
-12 10 -16 23 -7 26 -22 62 -41 98 -7 14 -11 29 -7 33 3 3 0 6 -7 6 -7 0 -11
3 -7 6 3 4 -3 24 -14 45 -11 22 -16 39 -12 39 5 0 2 4 -6 9 -14 9 -21 28 -24
63 -1 9 -6 16 -12 15 -5 -1 -9 4 -7 12 1 7 -4 24 -13 37 -8 13 -15 30 -15 38
0 8 -4 16 -10 18 -5 2 -11 15 -12 31 -1 15 -6 27 -11 27 -4 0 -5 5 -2 10 3 6
2 10 -2 10 -5 0 -17 26 -28 58 -10 31 -22 62 -26 67 -4 6 -9 22 -11 35 -2 14
-7 31 -11 38 -5 6 -5 12 -1 12 3 0 1 7 -6 15 -7 9 -10 18 -7 22 4 3 1 15 -5
27 -6 11 -12 35 -13 51 -1 17 -3 32 -5 35 -1 3 -2 9 -1 13 1 4 -3 17 -9 27 -8
14 -8 20 0 20 6 0 8 5 3 13 -12 20 -23 117 -25 220 0 31 -1 57 -2 57 0 0 -8
-5 -16 -10z"/>
<path d="M1617 3019 c-10 -6 -21 -8 -24 -6 -3 3 -14 -3 -26 -13 -11 -11 -23
-17 -27 -15 -3 2 -15 -8 -26 -22 -10 -15 -24 -31 -30 -37 -10 -11 -24 -40 -31
-66 -9 -33 -9 -120 0 -120 5 0 3 -8 -4 -17 -10 -11 -10 -14 -1 -9 6 4 12 2 12
-3 0 -20 3 -26 19 -39 12 -10 12 -12 1 -6 -8 4 2 -9 22 -29 20 -21 42 -37 48
-37 6 0 9 -4 6 -9 -3 -5 10 -12 28 -15 19 -4 37 -12 39 -19 4 -9 6 -9 6 1 1 8
6 10 13 6 17 -11 88 -11 88 0 0 4 7 6 15 2 8 -3 15 -1 15 4 0 6 3 9 8 8 25 -5
112 69 112 96 0 8 7 16 15 20 8 3 12 12 9 21 -3 8 -1 15 6 15 6 0 8 4 5 10 -3
5 -1 18 5 29 5 11 6 22 2 25 -4 2 -9 22 -10 43 -2 21 -7 40 -12 41 -6 2 -10
12 -10 23 0 10 -5 19 -11 19 -5 0 -7 5 -4 10 3 6 0 10 -8 10 -7 0 -20 11 -27
25 -7 14 -20 25 -28 25 -8 0 -21 8 -29 18 -8 10 -11 11 -7 2 7 -12 5 -13 -8
-3 -8 7 -18 10 -21 6 -4 -3 -7 -2 -7 4 0 14 -100 15 -123 2z"/>
<path d="M1165 2724 c0 -24 3 -44 8 -44 4 0 7 -5 7 -11 0 -5 -5 -7 -12 -3 -7
5 -8 3 -2 -7 5 -8 9 -25 10 -39 3 -70 17 -157 28 -169 9 -12 8 -13 -4 -6 -12
7 -13 6 -4 -6 6 -8 10 -24 9 -36 -1 -13 2 -23 7 -23 4 0 7 -3 7 -7 -1 -5 0
-12 1 -18 1 -5 3 -14 5 -20 1 -5 3 -18 3 -28 1 -10 6 -16 10 -13 4 2 9 -9 10
-27 2 -17 6 -35 11 -41 4 -6 16 -31 25 -56 30 -76 78 -170 87 -170 4 0 6 -7 3
-15 -4 -8 1 -17 10 -21 9 -3 13 -10 10 -15 -3 -5 0 -9 5 -9 6 0 11 -9 11 -21
0 -11 4 -18 10 -14 5 3 18 -12 29 -34 11 -21 25 -41 30 -43 5 -1 11 -9 13 -16
2 -8 17 -29 33 -46 82 -89 128 -135 175 -176 28 -25 58 -51 65 -57 7 -7 17
-13 21 -13 4 0 17 -11 30 -25 13 -14 27 -25 31 -25 5 0 16 -7 26 -15 9 -8 22
-15 27 -15 6 0 10 -4 10 -10 0 -5 9 -10 20 -10 11 0 20 -7 20 -15 0 -8 3 -14
8 -13 12 2 60 -20 67 -32 3 -5 11 -8 16 -5 5 4 9 1 9 -5 0 -6 5 -8 10 -5 6 3
10 2 10 -3 0 -9 37 -25 53 -23 4 1 7 -3 7 -9 0 -5 4 -10 9 -10 5 0 31 -10 58
-22 26 -12 51 -21 56 -20 4 1 7 -2 7 -8 0 -5 7 -7 15 -4 13 5 12 10 -6 25 -12
11 -18 19 -14 19 4 0 1 8 -8 18 -10 10 -14 22 -10 25 3 4 1 7 -6 7 -7 0 -9 5
-6 10 3 6 1 10 -4 10 -6 0 -11 5 -11 11 0 6 -7 17 -15 26 -8 8 -13 19 -10 24
4 5 1 9 -4 9 -6 0 -11 7 -11 15 0 8 -4 15 -9 15 -7 0 -12 9 -25 50 -8 26 -32
70 -38 70 -5 0 -8 7 -8 15 0 8 -4 23 -9 33 -27 54 -55 125 -52 136 1 5 -3 12
-8 16 -6 3 -12 16 -14 28 -2 12 -6 25 -10 28 -4 4 -7 18 -7 31 0 13 -4 23 -8
23 -4 0 -8 8 -9 18 -3 43 -8 62 -16 62 -4 0 -6 4 -3 9 3 5 -12 20 -34 35 -22
14 -40 23 -40 19 0 -4 -7 2 -16 13 -8 10 -13 12 -9 4 5 -12 4 -12 -7 1 -7 8
-20 19 -28 23 -39 18 -83 48 -139 92 -14 11 -34 24 -44 27 -10 4 -15 12 -12
17 4 6 3 10 -2 9 -19 -3 -34 2 -29 10 3 5 -4 11 -15 14 -12 3 -18 10 -14 16 3
6 0 11 -7 11 -7 0 -36 23 -65 50 -29 28 -50 50 -47 50 3 0 -1 6 -8 14 -7 8
-16 12 -19 10 -4 -2 -9 6 -12 17 -3 12 -10 18 -16 14 -6 -3 -11 0 -11 7 0 7
-16 30 -35 51 -18 20 -31 37 -27 37 4 0 0 6 -8 13 -8 7 -21 24 -29 40 -8 15
-18 27 -23 27 -4 0 -8 5 -8 10 0 6 -11 28 -24 49 -14 21 -22 42 -19 45 4 3 1
6 -5 6 -7 0 -12 8 -12 19 0 10 -6 23 -12 29 -10 8 -13 0 -13 -34z"/>
</g>
</svg>
